<svg width="1023" height="1023" viewBox="0 0 1023 1023" fill="none" xmlns="http://www.w3.org/2000/svg">
<mask id="path-1-outside-1_340_24331" maskUnits="userSpaceOnUse" x="39" y="185" width="946" height="685" fill="black">
<rect fill="white" x="39" y="185" width="946" height="685"/>
<path d="M550.15 387V651L752.65 858L962.65 802.5L637.15 508.5L962.65 249L752.65 196.5L550.15 387ZM478.15 387V651L266.65 858L61.1504 802.5L386.65 508.5L61.1504 249L266.65 196.5L478.15 387Z"/>
</mask>
<path d="M550.15 387V651L752.65 858L962.65 802.5L637.15 508.5L962.65 249L752.65 196.5L550.15 387ZM478.15 387V651L266.65 858L61.1504 802.5L386.65 508.5L61.1504 249L266.65 196.5L478.15 387Z" fill="black"/>
<path d="M550.15 387L543.298 379.716L540.15 382.678V387H550.15ZM550.15 651H540.15V655.078L543.002 657.993L550.15 651ZM752.65 858L745.502 864.993L749.575 869.156L755.206 867.668L752.65 858ZM962.65 802.5L965.206 812.168L983.052 807.452L969.353 795.079L962.65 802.5ZM637.15 508.5L630.917 500.681L621.705 508.025L630.448 515.921L637.15 508.5ZM962.65 249L968.884 256.819L984.705 244.206L965.076 239.299L962.65 249ZM752.65 196.5L755.076 186.799L749.777 185.474L745.798 189.216L752.65 196.5ZM478.15 387H488.15V382.549L484.843 379.57L478.15 387ZM478.15 651L485.145 658.147L488.15 655.205V651H478.15ZM266.65 858L264.043 867.654L269.561 869.144L273.645 865.147L266.65 858ZM61.1504 802.5L54.4475 795.079L40.8371 807.372L58.5431 812.154L61.1504 802.5ZM386.65 508.5L393.353 515.921L402.096 508.025L392.884 500.681L386.65 508.5ZM61.1504 249L58.6751 239.311L39.1974 244.287L54.9166 256.819L61.1504 249ZM266.65 196.5L273.343 189.07L269.364 185.486L264.175 186.811L266.65 196.5ZM540.15 387V651H560.15V387H540.15ZM543.002 657.993L745.502 864.993L759.799 851.007L557.299 644.007L543.002 657.993ZM755.206 867.668L965.206 812.168L960.095 792.832L750.095 848.332L755.206 867.668ZM969.353 795.079L643.853 501.079L630.448 515.921L955.948 809.921L969.353 795.079ZM643.384 516.319L968.884 256.819L956.417 241.181L630.917 500.681L643.384 516.319ZM965.076 239.299L755.076 186.799L750.225 206.201L960.225 258.701L965.076 239.299ZM745.798 189.216L543.298 379.716L557.002 394.284L759.502 203.784L745.798 189.216ZM468.15 387V651H488.15V387H468.15ZM471.156 643.853L259.656 850.853L273.645 865.147L485.145 658.147L471.156 643.853ZM269.258 848.346L63.7577 792.846L58.5431 812.154L264.043 867.654L269.258 848.346ZM67.8533 809.921L393.353 515.921L379.948 501.079L54.4475 795.079L67.8533 809.921ZM392.884 500.681L67.3842 241.181L54.9166 256.819L380.417 516.319L392.884 500.681ZM63.6256 258.689L269.126 206.189L264.175 186.811L58.6751 239.311L63.6256 258.689ZM259.958 203.93L471.458 394.43L484.843 379.57L273.343 189.07L259.958 203.93Z" fill="white" mask="url(#path-1-outside-1_340_24331)"/>
</svg>
